<?xml version="1.0" standalone="no"?>
<!DOCTYPE svg PUBLIC "-//W3C//DTD SVG 20010904//EN"
 "http://www.w3.org/TR/2001/REC-SVG-20010904/DTD/svg10.dtd">
<svg version="1.0" xmlns="http://www.w3.org/2000/svg"
 width="256.000000pt" height="256.000000pt" viewBox="0 0 256.000000 256.000000"
 preserveAspectRatio="xMidYMid meet">
<metadata>
Created by potrace 1.11, written by Peter Selinger 2001-2013
</metadata>
<g transform="translate(0.000000,256.000000) scale(0.100000,-0.100000)"
fill="#000000" stroke="none">
<path d="M1150 1978 c0 -5 -15 -8 -32 -8 -52 -1 -215 -45 -261 -71 -10 -5 -23
-7 -30 -3 -7 4 -9 4 -5 0 3 -4 -17 -20 -47 -36 -211 -111 -353 -315 -350 -503
0 -40 -3 -67 -10 -67 -5 0 -4 -4 4 -9 8 -5 12 -18 8 -30 -3 -13 -1 -19 5 -15
6 4 8 1 6 -7 -3 -8 3 -30 13 -50 10 -20 15 -39 12 -43 -4 -3 -1 -6 6 -6 7 0 9
-5 6 -10 -3 -5 -1 -10 5 -10 6 0 8 -4 5 -10 -3 -5 -2 -10 2 -10 5 0 27 -27 48
-60 21 -32 42 -57 47 -54 8 5 12 -11 9 -30 -1 -5 5 -6 12 -3 20 8 72 -47 61
-65 -6 -10 -4 -10 9 1 15 12 17 11 17 -2 0 -11 5 -14 17 -10 11 4 14 3 9 -5
-4 -7 -1 -12 6 -12 8 0 31 -9 53 -20 22 -11 33 -20 25 -20 -9 0 -8 -5 6 -14
12 -9 23 -11 30 -5 6 5 14 5 18 1 4 -4 11 -7 14 -8 4 0 19 -6 34 -12 22 -9 27
-17 25 -41 -1 -16 -6 -26 -12 -23 -5 3 -5 -1 1 -9 9 -11 7 -26 -8 -66 -21 -57
-65 -101 -109 -110 -37 -7 -55 -28 -40 -46 6 -8 9 -16 6 -18 -2 -3 6 -5 18 -6
53 -1 59 -3 53 -19 -3 -8 -2 -12 4 -9 6 3 10 12 10 19 0 7 10 12 23 10 12 -1
26 -3 31 -3 6 -1 5 -6 -2 -13 -7 -7 -12 -17 -12 -23 0 -5 5 -3 10 5 7 11 10
12 10 2 0 -8 6 -12 13 -9 6 2 19 -2 28 -9 13 -12 16 -12 16 1 0 8 -5 11 -10 8
-6 -4 -8 1 -4 11 5 11 3 15 -5 10 -7 -4 -8 -3 -4 4 4 7 2 12 -3 12 -6 0 -11
-7 -11 -16 0 -8 -4 -13 -10 -9 -5 3 -6 13 -3 21 4 11 13 14 30 9 19 -4 23 -3
17 7 -6 10 -3 9 9 -1 9 -7 17 -19 17 -25 0 -6 -5 -4 -10 4 -5 8 -10 11 -10 5
0 -5 5 -17 10 -25 6 -10 10 -11 10 -2 0 6 7 12 15 12 8 0 15 4 15 10 0 15 24
7 32 -10 6 -11 7 -10 5 5 -2 22 -24 27 -45 12 -9 -7 -11 -5 -6 8 6 14 4 16 -6
10 -8 -5 -11 -4 -7 2 8 12 36 10 63 -5 15 -8 24 -8 31 -1 8 8 17 7 32 -1 12
-6 21 -7 20 -3 -4 21 2 25 14 10 9 -13 16 -14 27 -6 13 9 12 10 -2 5 -14 -4
-16 0 -13 24 4 31 24 74 25 52 0 -7 5 -10 12 -6 7 4 8 3 4 -4 -5 -8 -2 -10 8
-6 10 4 16 1 16 -7 1 -9 4 -8 11 4 6 9 15 15 20 11 6 -3 5 3 -3 15 -16 27 -28
27 -23 1 2 -12 0 -18 -6 -15 -5 4 -6 11 -3 17 5 7 1 9 -9 5 -9 -3 -19 -1 -23
6 -4 7 -4 9 1 5 12 -11 67 22 62 37 -4 9 1 11 16 8 16 -3 18 -2 9 5 -11 7 -9
10 8 15 19 5 20 9 10 29 -10 20 -10 21 3 6 18 -23 29 -12 16 16 -9 19 -9 20 4
3 8 -9 21 -15 30 -11 8 3 18 0 23 -7 5 -9 2 -10 -12 -5 -10 4 -15 3 -10 -1 4
-4 20 -8 35 -9 23 0 27 3 23 23 -2 12 -8 20 -13 18 -4 -3 -5 -13 -2 -22 4 -11
3 -14 -5 -9 -7 4 -10 17 -8 29 3 12 5 24 5 26 1 2 10 -4 21 -14 11 -10 17 -23
13 -29 -4 -6 1 -5 10 3 11 9 17 10 17 2 0 -6 5 -11 11 -11 8 0 8 5 -1 15 -7 8
-16 13 -20 10 -4 -3 -11 2 -14 10 -4 13 -2 13 14 5 25 -13 33 -13 24 2 -4 7
-3 8 5 4 6 -4 8 -12 5 -18 -4 -7 -2 -8 4 -4 8 4 12 0 12 -11 1 -17 1 -17 11 0
9 15 13 16 27 5 10 -8 13 -9 9 -1 -4 6 -3 14 3 18 9 6 14 -8 11 -28 -1 -5 3
-6 8 -2 6 3 8 12 5 19 -3 8 0 17 7 22 7 4 10 3 5 -4 -3 -6 -1 -14 5 -18 8 -4
9 -3 5 5 -5 8 0 10 18 7 18 -3 23 -1 20 9 -3 7 0 16 7 21 7 4 10 3 5 -4 -3 -6
-2 -13 3 -16 17 -11 22 12 5 28 -8 9 -11 16 -6 16 5 0 15 -6 21 -14 13 -15 53
-18 44 -3 -3 4 1 8 8 6 26 -3 39 1 39 12 0 8 -5 8 -15 -1 -12 -10 -15 -10 -15
0 0 9 -3 10 -13 1 -8 -6 -18 -7 -22 -3 -5 4 -5 1 -1 -5 4 -7 2 -13 -3 -13 -6
0 -11 7 -11 15 0 8 -5 15 -12 15 -6 0 -9 3 -6 6 4 3 15 1 27 -5 11 -7 22 -7
25 -2 4 5 0 12 -6 14 -9 4 -10 6 -1 6 6 1 15 -4 18 -9 3 -6 11 -10 17 -10 6 0
5 7 -3 18 -7 9 -9 14 -5 10 5 -4 15 -3 22 3 10 8 12 6 9 -8 -5 -27 10 -50 19
-28 3 9 10 14 14 11 5 -3 9 0 10 7 1 21 11 60 17 65 3 3 8 2 12 -2 4 -4 1 -11
-7 -16 -13 -9 -13 -10 0 -10 9 0 11 -3 5 -8 -6 -4 -10 -14 -10 -22 1 -8 -4
-22 -9 -30 -10 -13 -9 -13 6 -1 10 7 16 16 14 20 -3 4 -1 13 5 21 6 11 9 12 9
2 0 -7 5 -10 11 -6 8 5 6 10 -5 16 -9 5 -14 13 -11 19 9 14 27 11 19 -3 -4 -7
-4 -10 1 -6 4 4 13 2 19 -5 6 -7 10 -10 9 -8 -2 2 2 10 9 18 8 11 7 12 -6 7
-12 -5 -15 -2 -10 10 4 12 2 15 -9 10 -8 -3 -18 1 -23 8 -4 7 -4 10 1 6 10 -9
47 10 40 21 -2 5 3 8 13 7 10 0 16 5 14 13 -3 12 0 12 12 2 8 -7 20 -10 25 -7
5 4 12 2 16 -4 3 -5 1 -10 -5 -10 -6 0 -8 -5 -5 -11 8 -12 16 -7 18 13 2 7 7
13 12 13 6 0 9 -3 8 -6 -1 -3 5 -6 13 -6 12 0 12 3 -1 17 -23 25 2 44 39 30
18 -6 25 -6 21 0 -3 6 -13 10 -21 10 -8 0 -14 4 -14 8 0 5 -7 9 -15 9 -8 0
-11 -5 -8 -11 3 -6 2 -7 -2 -3 -13 12 -15 38 -2 30 18 -11 57 -13 57 -3 0 5 8
7 18 4 14 -5 15 -4 2 5 -13 9 -12 12 5 26 20 16 20 16 -1 6 -12 -6 -24 -7 -28
-3 -4 3 -4 -1 -1 -10 4 -9 1 -19 -6 -24 -9 -5 -10 -2 -6 9 3 9 2 19 -3 22 -6
4 -10 -1 -10 -9 0 -19 -16 -21 -26 -4 -4 6 -3 8 3 5 6 -4 14 0 17 9 3 8 10 12
16 9 5 -3 10 -2 10 4 0 6 6 8 13 5 7 -2 24 6 37 18 14 13 28 22 33 20 5 -1 6
2 2 8 -3 5 0 10 7 10 8 0 6 5 -5 11 -9 6 -15 15 -11 21 4 7 10 5 16 -3 7 -11
8 -9 4 5 -5 13 -2 17 9 12 25 -9 17 8 -10 21 -16 7 -23 7 -18 1 4 -7 1 -8 -8
-3 -11 7 -11 5 1 -10 8 -10 10 -16 3 -12 -8 5 -11 1 -8 -13 2 -11 0 -18 -5
-15 -5 3 -11 1 -15 -5 -3 -5 2 -10 11 -10 22 0 10 -13 -16 -17 -21 -3 -27 11
-10 22 5 3 8 11 6 18 -1 7 -1 9 1 4 9 -16 21 5 17 28 -4 23 4 30 29 26 4 0 7
4 7 10 0 5 4 8 9 4 5 -3 12 -1 16 5 4 6 10 8 14 6 4 -3 13 0 21 5 12 7 11 8
-5 6 -11 -1 -26 -6 -32 -10 -7 -5 -13 -4 -13 2 0 5 5 13 10 16 6 3 8 18 6 32
-4 19 -1 23 10 19 12 -5 13 -2 3 17 -7 12 -12 23 -11 25 1 1 0 2 -3 2 -3 0 -8
0 -11 0 -4 0 0 -8 7 -17 8 -10 9 -14 2 -10 -8 5 -11 1 -8 -12 3 -14 -1 -18
-12 -14 -12 5 -12 7 -1 14 10 7 10 9 -2 9 -10 0 -11 3 -4 8 6 4 10 17 9 30 -1
20 2 22 22 17 15 -3 22 -2 19 4 -4 5 2 15 11 21 16 10 16 11 1 6 -10 -3 -20
-1 -23 4 -4 6 -11 10 -18 10 -6 0 -2 -6 9 -14 19 -15 19 -15 -3 -13 -14 1 -20
7 -18 19 2 10 0 18 -4 18 -4 0 -8 7 -8 16 0 15 1 15 13 0 9 -13 13 -14 17 -4
4 10 6 10 6 1 1 -7 6 -13 12 -13 8 0 8 5 -1 15 -10 12 -10 15 0 15 8 0 10 3 7
6 -4 4 -13 1 -22 -6 -15 -12 -22 0 -8 14 11 10 12 37 2 30 -5 -3 -9 4 -9 15 0
11 -9 22 -20 26 -11 3 -20 13 -20 21 0 8 -5 14 -11 14 -8 0 -8 5 1 15 10 12 9
15 -6 15 -16 0 -17 2 -4 10 13 9 13 10 0 10 -20 0 -41 35 -34 57 4 13 3 14 -3
5 -7 -10 -16 -4 -34 22 -13 20 -28 36 -33 36 -4 0 -6 7 -3 15 4 8 1 17 -5 21
-7 4 -8 3 -4 -4 10 -17 -5 -15 -25 4 -10 9 -15 23 -12 32 4 15 3 15 -6 2 -10
-13 -14 -12 -30 8 -11 12 -22 22 -25 22 -4 0 -18 7 -32 16 -24 16 -24 17 -7
38 18 21 18 21 -3 4 -22 -19 -44 -24 -44 -10 0 5 -18 15 -40 22 -22 7 -40 18
-40 23 0 6 -3 8 -6 4 -4 -3 -19 0 -35 8 -15 8 -37 15 -49 15 -12 0 -19 4 -16
8 3 5 -5 8 -17 7 -12 -1 -40 4 -63 11 -72 22 -374 39 -374 22z m993 -507 c14
-29 13 -41 -4 -41 -5 0 -5 7 -2 17 4 10 2 14 -4 10 -7 -4 -10 0 -9 10 2 10 -2
21 -8 25 -8 6 -8 8 1 8 6 0 18 -13 26 -29z m10 -234 c3 -7 -1 -21 -8 -30 -11
-16 -13 -16 -19 -2 -3 9 -2 13 3 10 5 -3 12 -1 16 5 3 5 1 10 -4 10 -6 0 -11
5 -11 10 0 14 17 12 23 -3z m-63 -182 c-7 -9 -15 -13 -19 -10 -3 3 1 10 9 15
21 14 24 12 10 -5z m-105 -125 c-17 -18 -38 -21 -52 -5 -5 4 -2 5 6 0 11 -6
13 -4 8 9 -6 14 -4 15 15 5 18 -10 20 -9 15 4 -4 11 -2 14 9 10 13 -5 13 -8
-1 -23z m-198 -120 c-2 -11 -9 -26 -16 -33 -10 -9 -11 -8 -7 6 3 9 8 24 11 32
7 22 15 18 12 -5z m-167 -69 c0 -3 -4 -13 -10 -21 -8 -12 -10 -12 -16 3 -3 9
-10 15 -14 12 -5 -3 -11 -2 -13 2 -3 5 8 9 24 9 16 1 29 -1 29 -5z m-64 -19
c1 -7 0 -8 -3 -2 -6 14 -24 13 -20 -1 4 -19 -40 -20 -48 -1 -5 13 -3 14 6 5 9
-9 15 -8 27 3 16 16 34 14 38 -4z m-206 -22 c0 -5 -2 -10 -4 -10 -3 0 -8 5
-11 10 -3 6 -1 10 4 10 6 0 11 -4 11 -10z m-197 -177 c-10 -3 -10 -10 -2 -26
7 -12 8 -19 4 -15 -5 4 -14 3 -22 -4 -7 -6 -16 -8 -19 -5 -8 8 26 57 40 56 7
0 7 -2 -1 -6z m-64 -49 c-9 -11 -15 -12 -26 -3 -7 7 -11 14 -8 18 3 3 10 -1
15 -9 9 -14 14 -7 11 13 -1 5 3 6 9 2 8 -5 7 -11 -1 -21z"/>
<path d="M2115 1609 c-4 -6 -5 -12 -2 -15 2 -3 7 2 10 11 7 17 1 20 -8 4z"/>
<path d="M2115 1540 c3 -5 8 -10 11 -10 2 0 4 5 4 10 0 6 -5 10 -11 10 -5 0
-7 -4 -4 -10z"/>
<path d="M2190 1305 c0 -5 5 -17 10 -25 5 -8 10 -10 10 -5 0 6 -5 17 -10 25
-5 8 -10 11 -10 5z"/>
<path d="M613 925 c0 -8 3 -13 5 -10 3 3 12 -1 21 -7 10 -8 9 -4 -3 10 -23 26
-23 26 -23 7z"/>
<path d="M1901 881 c-17 -13 -20 -20 -11 -26 6 -4 16 -3 22 3 6 6 16 9 22 8 6
-2 8 -1 3 1 -4 3 -5 9 -2 13 11 17 -11 18 -34 1z m29 5 c0 -2 -8 -10 -17 -17
-16 -13 -17 -12 -4 4 13 16 21 21 21 13z"/>
<path d="M686 842 c-3 -5 1 -9 9 -9 8 0 12 4 9 9 -3 4 -7 8 -9 8 -2 0 -6 -4
-9 -8z"/>
<path d="M1915 840 c-3 -5 -1 -10 4 -10 6 0 11 5 11 10 0 6 -2 10 -4 10 -3 0
-8 -4 -11 -10z"/>
<path d="M735 829 c-4 -6 -5 -12 -2 -15 2 -3 7 2 10 11 7 17 1 20 -8 4z"/>
<path d="M758 813 c7 -3 16 -2 19 1 4 3 -2 6 -13 5 -11 0 -14 -3 -6 -6z"/>
<path d="M775 780 c-3 -6 1 -7 9 -4 18 7 21 14 7 14 -6 0 -13 -4 -16 -10z"/>
<path d="M865 769 c-4 -5 -4 -13 -1 -16 3 -4 6 0 6 8 0 11 2 11 10 -1 6 -9 10
-10 10 -3 0 17 -17 25 -25 12z"/>
<path d="M900 740 c-6 -11 -8 -20 -6 -20 3 0 10 9 16 20 6 11 8 20 6 20 -3 0
-10 -9 -16 -20z"/>
<path d="M1510 670 c0 -5 5 -10 11 -10 5 0 7 5 4 10 -3 6 -8 10 -11 10 -2 0
-4 -4 -4 -10z"/>
<path d="M1315 640 c-10 -11 -14 -20 -9 -20 5 0 -6 -9 -25 -21 -32 -19 -33
-21 -16 -40 10 -10 20 -19 23 -19 3 0 2 3 -1 7 -4 3 -1 13 6 21 8 11 8 14 0 9
-6 -4 -14 -3 -18 3 -3 5 1 10 9 10 27 0 31 -2 28 -12 -1 -5 2 -7 8 -3 8 5 8
11 0 20 -8 10 -6 17 12 29 15 11 19 19 12 26 -7 7 -16 4 -29 -10z m25 6 c0 -2
-8 -10 -17 -17 -16 -13 -17 -12 -4 4 13 16 21 21 21 13z"/>
<path d="M1176 514 c-4 -10 -4 -15 0 -11 4 4 13 2 20 -4 8 -7 14 -6 20 2 4 7
3 9 -4 5 -6 -3 -15 1 -20 10 -8 15 -10 14 -16 -2z"/>
<path d="M1255 500 c3 -5 8 -10 11 -10 2 0 4 5 4 10 0 6 -5 10 -11 10 -5 0 -7
-4 -4 -10z"/>
<path d="M869 434 c-19 -24 -20 -44 -1 -36 11 4 12 7 3 10 -9 3 -8 9 5 23 9
10 15 19 12 19 -3 0 -12 -7 -19 -16z"/>
<path d="M1090 439 c0 -5 5 -7 10 -4 6 3 10 8 10 11 0 2 -4 4 -10 4 -5 0 -10
-5 -10 -11z"/>
<path d="M816 393 c-6 -14 -5 -15 5 -6 7 7 10 15 7 18 -3 3 -9 -2 -12 -12z"/>
<path d="M1036 398 c3 -5 10 -6 15 -3 13 9 11 12 -6 12 -8 0 -12 -4 -9 -9z"/>
</g>
</svg>
